<svg version="1.0" xmlns="http://www.w3.org/2000/svg" width="512pt" height="512pt" viewBox="0 0 512 512" preserveAspectRatio="xMidYMid meet"><g transform="translate(0,512) scale(0.1,-0.1)" fill="#00FF00" stroke="none"><path d="M2460 4654 c-258 -22 -504 -107 -711 -246 -114 -76 -280 -234 -365 -348 -119 -160 -216 -378 -261 -590 -26 -121 -26 -439 0 -560 61 -284 195 -539 390 -743 l65 -67 985 0 986 0 86 96 c186 210 304 441 362 714 26 121 26 439 0 560 -65 302 -189 533 -407 751 -184 184 -348 287 -583 364 -160 52 -397 82 -547 69z m316 -339 c213 -40 406 -140 567 -294 182 -174 286 -363 338 -613 29 -143 23 -348 -14 -491 -41 -156 -116 -301 -226 -439 l-46 -58 -835 0 -835 0 -46 58 c-110 138 -185 283 -226 439 -34 132 -42 328 -19 463 44 254 153 459 339 637 100 96 180 151 301 209 216 102 465 133 702 89z"/><path d="M2221 3980 c-205 -75 -398 -260 -482 -458 -78 -187 -79 -442 -2 -655 36 -102 86 -198 120 -229 76 -72 202 -48 247 46 26 55 20 100 -28 205 -59 128 -79 207 -78 311 0 105 26 194 83 279 56 84 117 134 235 191 116 56 136 79 142 160 3 45 0 61 -20 89 -52 77 -122 96 -217 61z"/><path d="M1681 1853 c-18 -9 -44 -34 -58 -55 -22 -32 -25 -46 -21 -98 4 -49 10 -66 34 -91 57 -62 17 -59 922 -59 l828 0 44 23 c89 44 115 164 53 237 -53 63 -1 60 -925 60 -763 0 -846 -2 -877 -17z"/><path d="M1700 1319 c-125 -50 -135 -236 -17 -293 32 -14 116 -16 871 -16 914 0 877 -2 928 59 63 74 37 194 -52 239 l-44 22 -831 -1 c-526 0 -839 -4 -855 -10z"/><path d="M2225 770 c-28 -11 -72 -60 -84 -93 -26 -68 2 -149 66 -188 38 -24 40 -24 348 -24 295 0 312 1 345 21 81 47 106 151 55 227 -46 67 -48 67 -397 66 -172 0 -322 -4 -333 -9z"/></g></svg>