<svg version="1.0" width="512" height="512" viewBox="0 0 512 512" preserveAspectRatio="xMidYMid meet" xmlns="http://www.w3.org/2000/svg"><g transform="translate(0,512) scale(0.1,-0.1)" fill="#34A853" stroke-linecap="round"><path d="M2460 4654 c-258 -22 -504 -107 -711 -246 -114 -76 -280 -234 -365 -348 -119 -160 -216 -378 -261 -590 -26 -121 -26 -439 0 -560 61 -284 195 -539 390 -743 l65 -67 985 0 986 0 86 96 c186 210 304 441 362 714 26 121 26 439 0 560 -65 302 -189 533 -407 751 -184 184 -348 287 -583 364 -160 52 -397 82 -547 69z m316 -339 c213 -40 406 -140 567 -294 182 -174 286 -363 338 -613 29 -143 23 -348 -14 -491 -41 -156 -116 -301 -226 -439 l-46 -58 -835 0 -835 0 -46 58 c-110 138 -185 283 -226 439 -34 132 -42 328 -19 463 44 254 153 459 339 637 100 96 180 151 301 209 216 102 465 133 702 89z"/><path d="M2221 3980 c-205 -75 -398 -260 -482 -458 -78 -187 -79 -442 -2 -655 36 -102 86 -198 120 -229 76 -72 202 -48 247 46 26 55 20 100 -28 205 -59 128 -79 207 -78 311 0 105 26 194 83 279 56 84 117 134 235 191 116 56 136 79 142 160 3 45 0 61 -20 89 -52 77 -122 96 -217 61z"/><path d="M1696 1853 C 1648 1844 1628 1819 1618 1798 C 1600 1766 1598 1752 1601 1700 C 1605 1651 1609 1634 1627 1609 C 1672 1547 1642 1550 2351 1550 L 3000 1550 L 3034 1573 C 3103 1617 3124 1737 3075 1810 C 3035 1873 3075 1870 2350 1870 C 1752 1870 1688 1868 1663 1853 L 1696 1853 Z"/><path d="M1700 1319 c-125 -50 -135 -236 -17 -293 32 -14 116 -16 871 -16 914 0 877 -2 928 59 63 74 37 194 -52 239 l-44 22 -831 -1 c-526 0 -839 -4 -855 -10z"/><path d="M2225 770 c-28 -11 -72 -60 -84 -93 -26 -68 2 -149 66 -188 38 -24 40 -24 348 -24 295 0 312 1 345 21 81 47 106 151 55 227 -46 67 -48 67 -397 66 -172 0 -322 -4 -333 -9z"/><ellipse fill="#EA4335" transform="matrix(1, 0, 0, -1, 0, 0)" cx="3304" cy="-1701" rx="154" ry="154"/></g></svg>